<svg width="189" height="31" viewBox="0 0 189 31" fill="none" xmlns="http://www.w3.org/2000/svg">
<mask id="mask0_170_52" style="mask-type:luminance" maskUnits="userSpaceOnUse" x="0" y="0" width="189" height="31">
<path d="M189 0H0V30.0843H189V0Z" fill="white"/>
</mask>
<g mask="url(#mask0_170_52)">
<path d="M108.448 12.2109L108.485 12.3397L112.524 26.6041L116.54 12.3399L116.576 12.2109H118.472V29.9123H116.63V18.6661L113.59 29.7821L113.555 29.9123H111.519L111.483 29.7824L108.419 18.6567V29.9123H106.577V12.2109H108.448ZM135.816 12.2109V14.0528H125.764V20.1468H135.816V21.9887H125.764V28.0705H135.816V29.9123H123.922V12.2109H135.816ZM153.161 12.2109V20.5007H151.319V14.0528H148.129V29.9123H146.286V14.0528H143.108V20.5007H141.266V12.2109H153.161ZM170.505 12.2109V14.0528H160.453V20.1468H170.505V21.9887H160.453V28.0705H170.505V29.9123H158.611V12.2109H170.505ZM183.608 12.2109C184.78 12.2109 185.781 12.6286 186.6 13.4472L186.677 13.5247C187.457 14.3296 187.85 15.3043 187.85 16.4284V17.7712C187.85 18.9312 187.432 19.9318 186.6 20.7511C185.781 21.5705 184.781 21.9887 183.608 21.9887H180.026L187.797 29.609L188.106 29.9123H185.617L185.565 29.8615L177.798 22.2102V29.9123H175.956V12.2109H183.608ZM177.798 20.1468H183.608C184.275 20.1468 184.834 19.9114 185.298 19.4485C185.774 18.9724 186.008 18.4122 186.008 17.7712V16.4284C186.008 15.763 185.774 15.2156 185.3 14.7525L185.298 14.7511C184.834 14.2881 184.275 14.0528 183.608 14.0528H177.798V20.1468Z" fill="black" stroke="black" stroke-width="0.353933"/>
<path d="M83.2173 1.42048H82.6156C80.0386 1.42048 78.7503 1.42048 77.766 1.92198C76.9003 2.3631 76.1963 3.06692 75.7553 3.93281C75.2538 4.91692 75.2538 6.20541 75.2538 8.78222V12.0384" stroke="black" stroke-width="2.1236"/>
<path d="M83.2173 28.8505H82.6156C80.0386 28.8505 78.7503 28.8505 77.766 28.3491C76.9003 27.9079 76.1963 27.204 75.7553 26.3383C75.2538 25.354 75.2538 24.0657 75.2538 21.4887V18.2325" stroke="black" stroke-width="2.1236"/>
<path d="M88.5262 1.42048H89.1279C91.7047 1.42048 92.9932 1.42048 93.9773 1.92198C94.8432 2.3631 95.547 3.06692 95.9882 3.93281C96.4897 4.91692 96.4897 6.20541 96.4897 8.78222V12.0384" stroke="black" stroke-width="2.1236"/>
<path d="M88.5262 28.8505H89.1279C91.7047 28.8505 92.9932 28.8505 93.9773 28.3491C94.8432 27.9079 95.547 27.204 95.9882 26.3383C96.4897 25.354 96.4897 24.0657 96.4897 21.4887V18.2325" stroke="black" stroke-width="2.1236"/>
<path d="M8.18409 0.354063C9.35667 0.354063 10.3452 0.772394 11.1642 1.59145C11.9834 2.4107 12.4016 3.41133 12.4016 4.57152V5.91434C12.4016 7.07453 11.9834 8.0751 11.1642 8.89446C10.3452 9.71346 9.35667 10.1318 8.18409 10.1318H2.37291V18.0555H0.531006V0.354063H8.18409ZM29.7704 0.354063V2.19596H24.7379V16.2136H29.7704V18.0555H17.8757V16.2136H22.896V2.19596H17.8757V0.354063H29.7704ZM37.0622 0.354063V16.2136H47.1149V18.0555H35.2201V0.354063H37.0622ZM64.4597 0.354063V2.19596H54.4068V8.28994H64.4597V10.1318H54.4068V16.2136H64.4597V18.0555H52.5649V0.354063H64.4597ZM2.37291 8.28994H8.18409C8.85072 8.28994 9.41064 8.05457 9.87359 7.59163C10.3496 7.11559 10.5839 6.55532 10.5839 5.91434V4.57152C10.5839 3.90613 10.3495 3.35877 9.87518 2.89565L9.87359 2.89424C9.41064 2.43122 8.85072 2.19596 8.18409 2.19596H2.37291V8.28994Z" fill="black" stroke="black" stroke-width="0.353933"/>
</g>
</svg>
