<svg width="34" height="34" viewBox="0 0 34 34" fill="none" xmlns="http://www.w3.org/2000/svg">
<g clip-path="url(#clip0_170_94)">
<mask id="mask0_170_94" style="mask-type:luminance" maskUnits="userSpaceOnUse" x="0" y="0" width="34" height="34">
<path d="M34 0H0V34H34V0Z" fill="white"/>
</mask>
<g mask="url(#mask0_170_94)">
<path d="M21.3669 0H12.6331C8.02788 0 5.7253 0 3.99212 0.952823C2.71117 1.65703 1.65703 2.71117 0.952823 3.99212C0 5.7253 0 8.02788 0 12.6331V21.3669C0 25.9721 0 28.2747 0.952823 30.0079C1.65703 31.2888 2.71117 32.343 3.99212 33.0472C5.7253 34 8.02788 34 12.6331 34H21.3669C25.9721 34 28.2747 34 30.0079 33.0472C31.2888 32.343 32.343 31.2888 33.0472 30.0079C34 28.2747 34 25.9721 34 21.3669V12.6331C34 8.02788 34 5.7253 33.0472 3.99212C32.343 2.71117 31.2888 1.65703 30.0079 0.952823C28.2747 0 25.9721 0 21.3669 0Z" fill="#FF5700"/>
<path fill-rule="evenodd" clip-rule="evenodd" d="M25.8985 6.5078V8.56642H28.0235V14.9414H25.8985V19.0585H28.0235V25.4336H25.8985V27.4922H7.03919V6.5078H25.8985ZM20.7189 19.0585C18.9584 19.0585 17.5314 20.4857 17.5314 22.2461C17.5314 24.0065 18.9584 25.4336 20.7189 25.4336C22.4793 25.4336 23.9064 24.0065 23.9064 22.2461C23.9064 20.4857 22.4793 19.0585 20.7189 19.0585ZM20.7189 8.56642C18.9584 8.56642 17.5314 9.99347 17.5314 11.7539C17.5314 13.5143 18.9584 14.9414 20.7189 14.9414C22.4793 14.9414 23.9064 13.5143 23.9064 11.7539C23.9064 9.99347 22.4793 8.56642 20.7189 8.56642Z" fill="white"/>
</g>
</g>
<defs>
<clipPath id="clip0_170_94">
<rect width="34" height="34" fill="white"/>
</clipPath>
</defs>
</svg>
